<svg width="42" height="74" viewBox="0 0 42 74" fill="none" xmlns="http://www.w3.org/2000/svg">
<g clip-path="url(#clip0_303_474)">
<path d="M26.0481 56.2893C23.7827 57.6355 20.8401 58.1132 18.8445 58.1132C15.0559 58.1132 11.7351 53.6497 11.7351 48.5624C11.7351 45.4603 9.21964 42.9449 6.11755 42.9449C3.01367 42.9449 0.5 45.4603 0.5 48.5624C0.5 58.2916 6.42767 66.4774 14.4065 68.7307C14.5885 71.6696 17.0219 74 20.0066 74C23.0719 74 25.5596 71.5442 25.6192 68.491C33.7329 66.3847 40.7353 60.3437 40.7353 49.7858C40.7353 37.1275 27.8089 30.2216 21.1709 30.2216C21.0866 30.2216 12.8398 29.488 12.8398 24.2137C12.8398 16.114 21.0871 15.8863 21.1709 15.8863C22.7322 15.8863 24.6319 16.814 26.1287 18.3108C26.848 19.0323 26.9251 19.1071 26.9251 22.1357C26.9251 25.2378 29.4424 27.7411 32.5426 27.7411C35.6447 27.7411 38.1624 25.2167 38.1624 22.1128C38.1624 18.5227 38.1624 14.454 34.0744 10.3647C31.6168 7.91066 28.672 6.16379 25.6089 5.2917C25.4373 2.34201 23.0002 0 20.007 0C16.9045 0 14.389 2.51723 14.389 5.6193V5.98677C8.25164 8.26783 1.60469 13.7191 1.60469 24.2137C1.60469 37.0854 14.9842 41.4373 21.1305 41.4548C22.8183 41.5915 29.4984 44.5501 29.4984 49.784C29.4984 52.865 28.4363 54.8696 26.0481 56.2893Z" fill="white"/>
</g>
<defs>
<clipPath id="clip0_303_474">
<rect width="41" height="74" fill="white" transform="translate(0.5)"/>
</clipPath>
</defs>
</svg>
